<svg width="14" height="16" viewBox="0 0 14 16" fill="none" xmlns="http://www.w3.org/2000/svg">
<path d="M4.00037 4.24915L4.00037 6.49915L9.25037 6.49915L9.25037 9.49915L4.00037 9.49915L4.00037 11.7491L0.250368 7.99914L4.00037 4.24915ZM5.50037 15.4991C5.10254 15.4991 4.72101 15.3411 4.43971 15.0598C4.1584 14.7785 4.00037 14.397 4.00037 13.9991L4.00037 12.4991L5.50037 12.4991L5.50037 13.9991L12.2504 13.9991L12.2504 1.99915L5.50037 1.99915L5.50037 3.49915L4.00037 3.49915L4.00037 1.99915C4.00037 1.60132 4.1584 1.21979 4.43971 0.938486C4.72101 0.657182 5.10254 0.499146 5.50037 0.499146L12.2504 0.499146C12.6482 0.499146 13.0297 0.657183 13.311 0.938487C13.5923 1.21979 13.7504 1.60132 13.7504 1.99915L13.7504 13.9991C13.7504 14.397 13.5923 14.7785 13.311 15.0598C13.0297 15.3411 12.6482 15.4991 12.2504 15.4991L5.50037 15.4991Z" fill="#919090"/>
</svg>
